<?xml version="1.0" encoding="utf-8"?>
<!-- Generator: Adobe Illustrator 17.1.0, SVG Export Plug-In . SVG Version: 6.00 Build 0)  -->
<!DOCTYPE svg PUBLIC "-//W3C//DTD SVG 1.1//EN" "http://www.w3.org/Graphics/SVG/1.1/DTD/svg11.dtd">
<svg version="1.1" id="Layer_1" xmlns="http://www.w3.org/2000/svg" xmlns:xlink="http://www.w3.org/1999/xlink" x="0px" y="0px"
	 viewBox="0 0 303.8 443.5" enable-background="new 0 0 303.8 443.5" xml:space="preserve">
<g>
	<polyline fill="#CBDB2A" points="151.9,0 8.1,85.3 84.1,130.3 151.9,90.1 219.8,130.3 295.7,85.3 151.9,0 	"/>
	<path fill="#6DCFF6" d="M303.8,180.1L236,220.4l67.9,40.2V180.1 M303.8,99.7L236,139.9l67.9,40.2V99.7"/>
	<polygon fill="#FFDA00" points="67.9,220.4 0,180.1 67.9,139.9 0,99.7 0,260.6 	"/>
	<path fill="#FFD800" d="M84.1,230l-76,45L84.1,230L84.1,230"/>
	<polyline fill="#F47521" points="84.1,230 8.1,275 151.9,360.3 151.9,270.2 84.1,230 	"/>
	<path fill="#8B6BAF" d="M295.7,275l-143.8,85.3v-90.1l67.9-40.2"/>
	<polyline fill="#6A5085" points="151.9,189.7 151.9,189.7 151.9,270.2 219.8,230 151.9,189.7 	"/>
	<polyline fill="#B55714" points="151.9,189.7 84.1,230 151.9,270.2 151.9,189.7 	"/>
	<polyline fill="#529DBA" points="236,139.9 168.1,180.1 236,220.4 303.8,180.1 236,139.9 	"/>
	<polyline fill="#95A41E" points="151.9,90.1 84.1,130.3 151.9,170.5 219.8,130.3 151.9,90.1 	"/>
	<polyline fill="#BEA201" points="67.9,139.9 0,180.1 67.9,220.4 135.7,180.1 67.9,139.9 	"/>
</g>
<g>
	<path fill="#231F20" d="M35.7,421.1H24.3c-1.7,0-2.9,1.3-2.9,2.9c0,1.7,1.3,2.9,2.9,2.9h8.3v7.4c-2.7,2.3-6.8,3.6-11.3,3.6
		c-10.3,0-14.9-8.1-14.9-16.1c0-9.1,6.2-15.7,14.7-15.7c3.7,0,6.7,1.1,10.2,3.7c0.7,0.5,1.4,0.8,2.1,0.8c1.7,0,2.9-1.2,2.9-2.9
		c0-0.8-0.3-1.5-1-2.1c-3.3-3.5-8.2-5.4-14.2-5.4C8.9,400.1,0,409.2,0,421.8c0,12.8,8.8,21.7,21.3,21.7c6.9,0,13-2.4,16.8-6.7
		c0.6-0.6,0.7-1.3,0.7-2.1v-10.3C38.9,422.4,37.6,421.1,35.7,421.1z"/>
	<path fill="#231F20" d="M85.1,413.3c0-7.8-5.4-12.4-14.3-12.4H54c-1.9,0-3.3,1.3-3.3,3.3V440c0,1.9,1.4,3.3,3.3,3.3
		c1.8,0,3.1-1.4,3.1-3.3v-14.6H70l7.9,16.1c0.6,1.2,1.5,1.8,2.9,1.8c2,0,3.1-1.6,3.1-3.2c0-0.4-0.1-0.9-0.3-1.4l-6.9-14
		C82.1,423,85.1,419,85.1,413.3z M78.7,413.3c0,3.9-2.7,6.5-6.8,6.5H57.1v-13h14.8C76.1,406.7,78.7,409.3,78.7,413.3z"/>
	<path fill="#231F20" d="M115.4,400.1c-12.1,0-21.3,9.3-21.3,21.7s9.1,21.7,21.3,21.7s21.3-9.3,21.3-21.7
		C136.6,409.4,127.5,400.1,115.4,400.1z M130.2,421.8c0,7.6-4.7,15.9-14.9,15.9c-10.2,0-14.9-8.2-14.9-15.9
		c0-7.6,4.7-15.9,14.9-15.9C125.6,405.9,130.2,414.2,130.2,421.8z"/>
	<path fill="#231F20" d="M179.9,400.4c-1.8,0-3.1,1.3-3.1,3.3v23c0,6.9-4.2,11.1-11.3,11.1c-7.1,0-11.3-4.1-11.3-11.1v-23
		c0-1.9-1.3-3.3-3.1-3.3c-1.9,0-3.3,1.4-3.3,3.3V426c0,10.8,6.8,17.5,17.7,17.5c10.9,0,17.7-6.7,17.7-17.5v-22.4
		C183.2,401.7,181.8,400.4,179.9,400.4z"/>
	<path fill="#231F20" d="M215.6,400.9h-15.8c-1.9,0-3.3,1.3-3.3,3.3V440c0,1.9,1.4,3.3,3.3,3.3c1.8,0,3.1-1.4,3.1-3.3v-14.2h12.7
		c9,0,14.3-4.6,14.3-12.3C230,405.5,224.6,400.9,215.6,400.9z M216.8,419.8h-13.9v-13.1h13.9c4.7,0,6.8,3.3,6.8,6.6
		C223.6,417.3,220.9,419.8,216.8,419.8z"/>
	<path fill="#00B7CE" d="M253.7,400.4c-0.5,0-0.8,0.1-1.4,0.3l-11,5.1c-1.4,0.7-2.1,2.2-1.7,3.5c0.6,1.7,2.2,2.2,3.7,1.9
		c0.3-0.1,0.6-0.2,0.9-0.3l6.4-3.1v32.4c0,1.8,1.3,3.1,3.1,3.1c1.8,0,3.1-1.3,3.1-3.1v-36.6C256.7,401.6,255.5,400.4,253.7,400.4z"
		/>
	<path fill="#00B7CE" d="M285.9,400.1c-11.8,0-18,10.9-18,21.7s6.2,21.7,18,21.7c11.8,0,18-10.9,18-21.7S297.6,400.1,285.9,400.1z
		 M297.6,421.8c0,9.5-4.8,16.1-11.7,16.1c-6.9,0-11.7-6.6-11.7-16.1s4.8-16.1,11.7-16.1C292.7,405.7,297.6,412.3,297.6,421.8z"/>
</g>
</svg>
